<svg width="37" height="37" viewBox="0 0 37 37" fill="none" xmlns="http://www.w3.org/2000/svg">
<circle cx="18.5" cy="18.5" r="18.5" fill="url(#paint0_linear_163:2685)"/>
<g clip-path="url(#clip0_163:2685)">
<path d="M15.285 23.3429L10.7146 18.7725C10.5613 18.6191 10.4751 18.411 10.4751 18.194C10.4751 17.9771 10.5613 17.769 10.7146 17.6156L15.285 13.0452C15.3994 12.9308 15.5452 12.8529 15.7039 12.8214C15.8626 12.7898 16.0271 12.806 16.1765 12.8679C16.326 12.9298 16.4538 13.0347 16.5437 13.1692C16.6336 13.3037 16.6816 13.4619 16.6816 13.6237V22.7644C16.6816 22.9262 16.6336 23.0843 16.5437 23.2189C16.4538 23.3534 16.326 23.4582 16.1765 23.5201C16.0271 23.582 15.8626 23.5982 15.7039 23.5667C15.5452 23.5351 15.3994 23.4572 15.285 23.3429Z" fill="url(#paint1_linear_163:2685)"/>
</g>
<g clip-path="url(#clip1_163:2685)">
<path d="M20.3181 22.7644V13.6237C20.3181 13.4619 20.3662 13.3037 20.4561 13.1692C20.546 13.0347 20.6737 12.9298 20.8232 12.8679C20.9727 12.806 21.1372 12.7898 21.2959 12.8214C21.4546 12.8529 21.6003 12.9308 21.7148 13.0452L26.2851 17.6156C26.4385 17.769 26.5247 17.9771 26.5247 18.194C26.5247 18.411 26.4385 18.6191 26.2851 18.7725L21.7148 23.3429C21.6003 23.4572 21.4546 23.5351 21.2959 23.5667C21.1372 23.5982 20.9727 23.582 20.8232 23.5201C20.6737 23.4582 20.546 23.3534 20.4561 23.2189C20.3662 23.0843 20.3181 22.9262 20.3181 22.7644Z" fill="url(#paint2_linear_163:2685)"/>
</g>
<rect x="1" y="1" width="35" height="35" rx="17.5" stroke="url(#paint3_linear_163:2685)" stroke-width="2"/>
<defs>
<linearGradient id="paint0_linear_163:2685" x1="56.381" y1="18.5" x2="-39.6429" y2="53.7381" gradientUnits="userSpaceOnUse">
<stop stop-color="#FF4AF7"/>
<stop offset="1" stop-color="#00CCFF"/>
</linearGradient>
<linearGradient id="paint1_linear_163:2685" x1="13.5784" y1="12.8057" x2="13.5784" y2="23.5824" gradientUnits="userSpaceOnUse">
<stop stop-color="white"/>
<stop offset="1" stop-color="#B9B9B9"/>
</linearGradient>
<linearGradient id="paint2_linear_163:2685" x1="23.4214" y1="12.8057" x2="23.4214" y2="23.5824" gradientUnits="userSpaceOnUse">
<stop stop-color="white"/>
<stop offset="1" stop-color="#B9B9B9"/>
</linearGradient>
<linearGradient id="paint3_linear_163:2685" x1="7.5" y1="3.5" x2="60.5" y2="66.5" gradientUnits="userSpaceOnUse">
<stop stop-color="#B769FF"/>
<stop offset="1" stop-color="#0DA7CE"/>
</linearGradient>
<clipPath id="clip0_163:2685">
<rect width="7.63636" height="12" fill="white" transform="translate(9.86353 12.5)"/>
</clipPath>
<clipPath id="clip1_163:2685">
<rect width="7.63636" height="12" fill="white" transform="translate(19.5 12.5)"/>
</clipPath>
</defs>
</svg>
