<svg width="35" height="110" viewBox="0 0 35 110" fill="none" xmlns="http://www.w3.org/2000/svg">
<path d="M0.0776253 107.448C-0.227122 108.51 0.386509 109.618 1.44821 109.922C2.50991 110.227 3.61763 109.613 3.92237 108.552L0.0776253 107.448ZM34.9224 0.551793C35.2271 -0.509906 34.6135 -1.61763 33.5518 -1.92237C32.4901 -2.22712 31.3824 -1.61349 31.0776 -0.551793L34.9224 0.551793ZM3.92237 108.552L34.9224 0.551793L31.0776 -0.551793L0.0776253 107.448L3.92237 108.552Z" fill="url(#paint0_linear_659:1154)"/>
<path d="M0.0776253 67.4482C-0.227122 68.5099 0.386509 69.6176 1.44821 69.9224C2.50991 70.2271 3.61763 69.6135 3.92237 68.5518L0.0776253 67.4482ZM34.9224 -39.4482C35.2271 -40.5099 34.6135 -41.6176 33.5518 -41.9224C32.4901 -42.2271 31.3824 -41.6135 31.0776 -40.5518L34.9224 -39.4482ZM3.92237 68.5518L34.9224 -39.4482L31.0776 -40.5518L0.0776253 67.4482L3.92237 68.5518Z" fill="url(#paint1_linear_659:1154)"/>
<defs>
<linearGradient id="paint0_linear_659:1154" x1="56.3507" y1="-270.701" x2="56.3507" y2="108" gradientUnits="userSpaceOnUse">
<stop stop-color="#FF4AF7"/>
</linearGradient>
<linearGradient id="paint1_linear_659:1154" x1="56.3507" y1="-310.701" x2="56.3507" y2="68" gradientUnits="userSpaceOnUse">
<stop stop-color="#00CCFF"/>
</linearGradient>
</defs>
</svg>
