<svg width="54" height="137" viewBox="0 0 54 137" fill="none" xmlns="http://www.w3.org/2000/svg">
<path d="M0.0776253 134.448C-0.227122 135.51 0.386509 136.618 1.44821 136.922C2.50991 137.227 3.61763 136.613 3.92237 135.552L0.0776253 134.448ZM34.9224 27.5518C35.2271 26.4901 34.6135 25.3824 33.5518 25.0776C32.4901 24.7729 31.3824 25.3865 31.0776 26.4482L34.9224 27.5518ZM3.92237 135.552L34.9224 27.5518L31.0776 26.4482L0.0776253 134.448L3.92237 135.552Z" fill="url(#paint0_linear_659:1153)"/>
<path d="M19.0776 109.448C18.7729 110.51 19.3865 111.618 20.4482 111.922C21.5099 112.227 22.6176 111.613 22.9224 110.552L19.0776 109.448ZM53.9224 2.55179C54.2271 1.49009 53.6135 0.382372 52.5518 0.0776253C51.4901 -0.227122 50.3824 0.386509 50.0776 1.44821L53.9224 2.55179ZM22.9224 110.552L53.9224 2.55179L50.0776 1.44821L19.0776 109.448L22.9224 110.552Z" fill="url(#paint1_linear_659:1153)"/>
<defs>
<linearGradient id="paint0_linear_659:1153" x1="56.3507" y1="-243.701" x2="56.3507" y2="135" gradientUnits="userSpaceOnUse">
<stop stop-color="#FF4AF7"/>
</linearGradient>
<linearGradient id="paint1_linear_659:1153" x1="75.3507" y1="-268.701" x2="75.3507" y2="110" gradientUnits="userSpaceOnUse">
<stop stop-color="#00CCFF"/>
</linearGradient>
</defs>
</svg>
