<svg width="40" height="48" viewBox="0 0 40 48" fill="none" xmlns="http://www.w3.org/2000/svg">
<g filter="url(#filter0_ddd_199:3286)">
<path d="M0.21875 6.09375V3.15625C0.21875 2.34375 0.520833 1.64583 1.125 1.0625C1.72917 0.479167 2.4375 0.1875 3.25 0.1875H36.7188C37.5312 0.1875 38.2292 0.479167 38.8125 1.0625C39.4167 1.64583 39.7188 2.34375 39.7188 3.15625V6.03125C39.7188 7.46875 39.0833 9.36458 37.8125 11.7188L21.4062 42.0625C20.3438 44.0208 18.9792 45 17.3125 45H10.9062C10.0729 45 9.47917 44.7292 9.125 44.1875C8.79167 43.625 8.79167 43.0208 9.125 42.375L27.1875 9.03125H3.25C2.39583 9.03125 1.67708 8.75 1.09375 8.1875C0.510417 7.60417 0.21875 6.90625 0.21875 6.09375Z" fill="white"/>
<path d="M0.21875 6.09375V3.15625C0.21875 2.34375 0.520833 1.64583 1.125 1.0625C1.72917 0.479167 2.4375 0.1875 3.25 0.1875H36.7188C37.5312 0.1875 38.2292 0.479167 38.8125 1.0625C39.4167 1.64583 39.7188 2.34375 39.7188 3.15625V6.03125C39.7188 7.46875 39.0833 9.36458 37.8125 11.7188L21.4062 42.0625C20.3438 44.0208 18.9792 45 17.3125 45H10.9062C10.0729 45 9.47917 44.7292 9.125 44.1875C8.79167 43.625 8.79167 43.0208 9.125 42.375L27.1875 9.03125H3.25C2.39583 9.03125 1.67708 8.75 1.09375 8.1875C0.510417 7.60417 0.21875 6.90625 0.21875 6.09375Z" fill="url(#paint0_linear_199:3286)"/>
<path d="M0.21875 6.09375V3.15625C0.21875 2.34375 0.520833 1.64583 1.125 1.0625C1.72917 0.479167 2.4375 0.1875 3.25 0.1875H36.7188C37.5312 0.1875 38.2292 0.479167 38.8125 1.0625C39.4167 1.64583 39.7188 2.34375 39.7188 3.15625V6.03125C39.7188 7.46875 39.0833 9.36458 37.8125 11.7188L21.4062 42.0625C20.3438 44.0208 18.9792 45 17.3125 45H10.9062C10.0729 45 9.47917 44.7292 9.125 44.1875C8.79167 43.625 8.79167 43.0208 9.125 42.375L27.1875 9.03125H3.25C2.39583 9.03125 1.67708 8.75 1.09375 8.1875C0.510417 7.60417 0.21875 6.90625 0.21875 6.09375Z" fill="url(#paint1_radial_199:3286)"/>
</g>
<defs>
<filter id="filter0_ddd_199:3286" x="0.21875" y="0.1875" width="39.5" height="47.8125" filterUnits="userSpaceOnUse" color-interpolation-filters="sRGB">
<feFlood flood-opacity="0" result="BackgroundImageFix"/>
<feColorMatrix in="SourceAlpha" type="matrix" values="0 0 0 0 0 0 0 0 0 0 0 0 0 0 0 0 0 0 127 0" result="hardAlpha"/>
<feOffset dy="3"/>
<feColorMatrix type="matrix" values="0 0 0 0 0.360784 0 0 0 0 0.376471 0 0 0 0 0.462745 0 0 0 1 0"/>
<feBlend mode="normal" in2="BackgroundImageFix" result="effect1_dropShadow_199:3286"/>
<feColorMatrix in="SourceAlpha" type="matrix" values="0 0 0 0 0 0 0 0 0 0 0 0 0 0 0 0 0 0 127 0" result="hardAlpha"/>
<feOffset dy="2"/>
<feColorMatrix type="matrix" values="0 0 0 0 0.445312 0 0 0 0 0.463341 0 0 0 0 0.5625 0 0 0 1 0"/>
<feBlend mode="normal" in2="effect1_dropShadow_199:3286" result="effect2_dropShadow_199:3286"/>
<feColorMatrix in="SourceAlpha" type="matrix" values="0 0 0 0 0 0 0 0 0 0 0 0 0 0 0 0 0 0 127 0" result="hardAlpha"/>
<feOffset dy="1"/>
<feColorMatrix type="matrix" values="0 0 0 0 0.538889 0 0 0 0 0.558547 0 0 0 0 0.666667 0 0 0 1 0"/>
<feBlend mode="normal" in2="effect2_dropShadow_199:3286" result="effect3_dropShadow_199:3286"/>
<feBlend mode="normal" in="SourceGraphic" in2="effect3_dropShadow_199:3286" result="shape"/>
</filter>
<linearGradient id="paint0_linear_199:3286" x1="20" y1="-1.7957" x2="20" y2="54.1183" gradientUnits="userSpaceOnUse">
<stop stop-color="white"/>
<stop offset="1" stop-color="#465085"/>
</linearGradient>
<radialGradient id="paint1_radial_199:3286" cx="0" cy="0" r="1" gradientUnits="userSpaceOnUse" gradientTransform="translate(20 -6.95699) rotate(90) scale(28.3871 33)">
<stop stop-color="white"/>
<stop offset="1" stop-color="white" stop-opacity="0"/>
</radialGradient>
</defs>
</svg>
