<svg width="95" height="50" viewBox="0 0 95 50" fill="none" xmlns="http://www.w3.org/2000/svg">
<g filter="url(#filter0_ddd_199:3493)">
<path d="M0.96875 33.7812C0.96875 32.5312 1.33333 31.6458 2.0625 31.125C2.79167 30.5833 3.5 30.3125 4.1875 30.3125H7.875C9.8125 30.3125 11.3333 31.5 12.4375 33.875C13.5417 36.25 16.0833 37.4375 20.0625 37.4375H24.5312C27.0938 37.4375 28.9688 37.0729 30.1562 36.3438C31.3438 35.6146 31.9375 34.375 31.9375 32.625C31.9375 30.875 31.3438 29.6354 30.1562 28.9062C28.9688 28.1771 27.0938 27.8125 24.5312 27.8125H18.9062C18.0938 27.8125 17.3958 27.5312 16.8125 26.9688C16.2292 26.3854 15.9375 25.6875 15.9375 24.875V22.3125C15.9375 21.5417 16.2188 20.8646 16.7812 20.2812C17.3438 19.6771 18.0104 19.375 18.7812 19.375H23.375C26.1458 19.375 28.1562 19.0104 29.4062 18.2812C30.6771 17.5521 31.3125 16.3125 31.3125 14.5625C31.3125 12.8125 30.6771 11.5833 29.4062 10.875C28.1562 10.1458 26.1458 9.78125 23.375 9.78125H21.0625C17.0625 9.78125 14.4167 11.0625 13.125 13.625C12.1875 15.5833 10.7812 16.5625 8.90625 16.5625H5.1875C4.1875 16.5625 3.40625 16.1979 2.84375 15.4688C2.28125 14.7396 2 13.9479 2 13.0938C2 10.7188 2.90625 8.58333 4.71875 6.6875C6.53125 4.77083 8.79167 3.33333 11.5 2.375C14.2083 1.41667 17.0312 0.9375 19.9688 0.9375H24.2812C36.8229 0.9375 43.0938 5.5 43.0938 14.625C43.0938 18.4375 41.6667 21.4271 38.8125 23.5938C42.0833 25.6562 43.7188 28.6667 43.7188 32.625C43.7188 37.4375 42.1771 40.9167 39.0938 43.0625C36.0312 45.1875 31.5417 46.25 25.625 46.25H18.9688C14.3021 46.25 10.1354 45.1042 6.46875 42.8125C2.80208 40.5 0.96875 37.4896 0.96875 33.7812ZM47.5938 23.5938C47.5938 19.4062 48.1667 15.8125 49.3125 12.8125C50.4792 9.8125 52.125 7.46875 54.25 5.78125C58.2917 2.55208 63.5625 0.9375 70.0625 0.9375H72.25C78.75 0.9375 84.0208 2.55208 88.0625 5.78125C92.5 9.32292 94.7188 15.2604 94.7188 23.5938C94.7188 31.9688 92.5 37.9167 88.0625 41.4375C84.0208 44.6458 78.75 46.25 72.25 46.25H70.0625C63.5625 46.25 58.2917 44.6458 54.25 41.4375C49.8125 37.9167 47.5938 31.9688 47.5938 23.5938ZM71.1562 9.78125C63.3021 9.78125 59.375 14.3958 59.375 23.625C59.375 32.8333 63.3021 37.4375 71.1562 37.4375C79.0104 37.4375 82.9375 32.8333 82.9375 23.625C82.9375 14.3958 79.0104 9.78125 71.1562 9.78125Z" fill="white"/>
<path d="M0.96875 33.7812C0.96875 32.5312 1.33333 31.6458 2.0625 31.125C2.79167 30.5833 3.5 30.3125 4.1875 30.3125H7.875C9.8125 30.3125 11.3333 31.5 12.4375 33.875C13.5417 36.25 16.0833 37.4375 20.0625 37.4375H24.5312C27.0938 37.4375 28.9688 37.0729 30.1562 36.3438C31.3438 35.6146 31.9375 34.375 31.9375 32.625C31.9375 30.875 31.3438 29.6354 30.1562 28.9062C28.9688 28.1771 27.0938 27.8125 24.5312 27.8125H18.9062C18.0938 27.8125 17.3958 27.5312 16.8125 26.9688C16.2292 26.3854 15.9375 25.6875 15.9375 24.875V22.3125C15.9375 21.5417 16.2188 20.8646 16.7812 20.2812C17.3438 19.6771 18.0104 19.375 18.7812 19.375H23.375C26.1458 19.375 28.1562 19.0104 29.4062 18.2812C30.6771 17.5521 31.3125 16.3125 31.3125 14.5625C31.3125 12.8125 30.6771 11.5833 29.4062 10.875C28.1562 10.1458 26.1458 9.78125 23.375 9.78125H21.0625C17.0625 9.78125 14.4167 11.0625 13.125 13.625C12.1875 15.5833 10.7812 16.5625 8.90625 16.5625H5.1875C4.1875 16.5625 3.40625 16.1979 2.84375 15.4688C2.28125 14.7396 2 13.9479 2 13.0938C2 10.7188 2.90625 8.58333 4.71875 6.6875C6.53125 4.77083 8.79167 3.33333 11.5 2.375C14.2083 1.41667 17.0312 0.9375 19.9688 0.9375H24.2812C36.8229 0.9375 43.0938 5.5 43.0938 14.625C43.0938 18.4375 41.6667 21.4271 38.8125 23.5938C42.0833 25.6562 43.7188 28.6667 43.7188 32.625C43.7188 37.4375 42.1771 40.9167 39.0938 43.0625C36.0312 45.1875 31.5417 46.25 25.625 46.25H18.9688C14.3021 46.25 10.1354 45.1042 6.46875 42.8125C2.80208 40.5 0.96875 37.4896 0.96875 33.7812ZM47.5938 23.5938C47.5938 19.4062 48.1667 15.8125 49.3125 12.8125C50.4792 9.8125 52.125 7.46875 54.25 5.78125C58.2917 2.55208 63.5625 0.9375 70.0625 0.9375H72.25C78.75 0.9375 84.0208 2.55208 88.0625 5.78125C92.5 9.32292 94.7188 15.2604 94.7188 23.5938C94.7188 31.9688 92.5 37.9167 88.0625 41.4375C84.0208 44.6458 78.75 46.25 72.25 46.25H70.0625C63.5625 46.25 58.2917 44.6458 54.25 41.4375C49.8125 37.9167 47.5938 31.9688 47.5938 23.5938ZM71.1562 9.78125C63.3021 9.78125 59.375 14.3958 59.375 23.625C59.375 32.8333 63.3021 37.4375 71.1562 37.4375C79.0104 37.4375 82.9375 32.8333 82.9375 23.625C82.9375 14.3958 79.0104 9.78125 71.1562 9.78125Z" fill="url(#paint0_linear_199:3493)"/>
<path d="M0.96875 33.7812C0.96875 32.5312 1.33333 31.6458 2.0625 31.125C2.79167 30.5833 3.5 30.3125 4.1875 30.3125H7.875C9.8125 30.3125 11.3333 31.5 12.4375 33.875C13.5417 36.25 16.0833 37.4375 20.0625 37.4375H24.5312C27.0938 37.4375 28.9688 37.0729 30.1562 36.3438C31.3438 35.6146 31.9375 34.375 31.9375 32.625C31.9375 30.875 31.3438 29.6354 30.1562 28.9062C28.9688 28.1771 27.0938 27.8125 24.5312 27.8125H18.9062C18.0938 27.8125 17.3958 27.5312 16.8125 26.9688C16.2292 26.3854 15.9375 25.6875 15.9375 24.875V22.3125C15.9375 21.5417 16.2188 20.8646 16.7812 20.2812C17.3438 19.6771 18.0104 19.375 18.7812 19.375H23.375C26.1458 19.375 28.1562 19.0104 29.4062 18.2812C30.6771 17.5521 31.3125 16.3125 31.3125 14.5625C31.3125 12.8125 30.6771 11.5833 29.4062 10.875C28.1562 10.1458 26.1458 9.78125 23.375 9.78125H21.0625C17.0625 9.78125 14.4167 11.0625 13.125 13.625C12.1875 15.5833 10.7812 16.5625 8.90625 16.5625H5.1875C4.1875 16.5625 3.40625 16.1979 2.84375 15.4688C2.28125 14.7396 2 13.9479 2 13.0938C2 10.7188 2.90625 8.58333 4.71875 6.6875C6.53125 4.77083 8.79167 3.33333 11.5 2.375C14.2083 1.41667 17.0312 0.9375 19.9688 0.9375H24.2812C36.8229 0.9375 43.0938 5.5 43.0938 14.625C43.0938 18.4375 41.6667 21.4271 38.8125 23.5938C42.0833 25.6562 43.7188 28.6667 43.7188 32.625C43.7188 37.4375 42.1771 40.9167 39.0938 43.0625C36.0312 45.1875 31.5417 46.25 25.625 46.25H18.9688C14.3021 46.25 10.1354 45.1042 6.46875 42.8125C2.80208 40.5 0.96875 37.4896 0.96875 33.7812ZM47.5938 23.5938C47.5938 19.4062 48.1667 15.8125 49.3125 12.8125C50.4792 9.8125 52.125 7.46875 54.25 5.78125C58.2917 2.55208 63.5625 0.9375 70.0625 0.9375H72.25C78.75 0.9375 84.0208 2.55208 88.0625 5.78125C92.5 9.32292 94.7188 15.2604 94.7188 23.5938C94.7188 31.9688 92.5 37.9167 88.0625 41.4375C84.0208 44.6458 78.75 46.25 72.25 46.25H70.0625C63.5625 46.25 58.2917 44.6458 54.25 41.4375C49.8125 37.9167 47.5938 31.9688 47.5938 23.5938ZM71.1562 9.78125C63.3021 9.78125 59.375 14.3958 59.375 23.625C59.375 32.8333 63.3021 37.4375 71.1562 37.4375C79.0104 37.4375 82.9375 32.8333 82.9375 23.625C82.9375 14.3958 79.0104 9.78125 71.1562 9.78125Z" fill="url(#paint1_radial_199:3493)"/>
</g>
<defs>
<filter id="filter0_ddd_199:3493" x="0.96875" y="0.9375" width="93.75" height="48.3125" filterUnits="userSpaceOnUse" color-interpolation-filters="sRGB">
<feFlood flood-opacity="0" result="BackgroundImageFix"/>
<feColorMatrix in="SourceAlpha" type="matrix" values="0 0 0 0 0 0 0 0 0 0 0 0 0 0 0 0 0 0 127 0" result="hardAlpha"/>
<feOffset dy="3"/>
<feColorMatrix type="matrix" values="0 0 0 0 0.360784 0 0 0 0 0.376471 0 0 0 0 0.462745 0 0 0 1 0"/>
<feBlend mode="normal" in2="BackgroundImageFix" result="effect1_dropShadow_199:3493"/>
<feColorMatrix in="SourceAlpha" type="matrix" values="0 0 0 0 0 0 0 0 0 0 0 0 0 0 0 0 0 0 127 0" result="hardAlpha"/>
<feOffset dy="2"/>
<feColorMatrix type="matrix" values="0 0 0 0 0.445312 0 0 0 0 0.463341 0 0 0 0 0.5625 0 0 0 1 0"/>
<feBlend mode="normal" in2="effect1_dropShadow_199:3493" result="effect2_dropShadow_199:3493"/>
<feColorMatrix in="SourceAlpha" type="matrix" values="0 0 0 0 0 0 0 0 0 0 0 0 0 0 0 0 0 0 127 0" result="hardAlpha"/>
<feOffset dy="1"/>
<feColorMatrix type="matrix" values="0 0 0 0 0.538889 0 0 0 0 0.558547 0 0 0 0 0.666667 0 0 0 1 0"/>
<feBlend mode="normal" in2="effect2_dropShadow_199:3493" result="effect3_dropShadow_199:3493"/>
<feBlend mode="normal" in="SourceGraphic" in2="effect3_dropShadow_199:3493" result="shape"/>
</filter>
<linearGradient id="paint0_linear_199:3493" x1="48" y1="-0.580646" x2="48" y2="56.0323" gradientUnits="userSpaceOnUse">
<stop stop-color="white"/>
<stop offset="1" stop-color="#854670"/>
</linearGradient>
<radialGradient id="paint1_radial_199:3493" cx="0" cy="0" r="1" gradientUnits="userSpaceOnUse" gradientTransform="translate(48 -5.80645) rotate(90) scale(28.7419 57.75)">
<stop stop-color="white"/>
<stop offset="1" stop-color="white" stop-opacity="0"/>
</radialGradient>
</defs>
</svg>
