<svg width="74" height="48" viewBox="0 0 74 48" fill="none" xmlns="http://www.w3.org/2000/svg">
<g filter="url(#filter0_ddd_199:3756)">
<path d="M0.71875 11.0938C0.46875 10.7396 0.34375 10.3229 0.34375 9.84375C0.34375 9.36458 0.6875 8.83333 1.375 8.25L9 1.6875C10.1042 0.708333 11.6354 0.208333 13.5938 0.1875H18.1875C19.0417 0.1875 19.7604 0.479167 20.3438 1.0625C20.9271 1.64583 21.2188 2.34375 21.2188 3.15625V42.0625C21.2188 42.875 20.9167 43.5729 20.3125 44.1562C19.7083 44.7188 19 45 18.1875 45H12.375C11.5625 45 10.8646 44.7292 10.2812 44.1875C9.71875 43.625 9.4375 42.9375 9.4375 42.125V11.9062L5.84375 14.5312C5.42708 14.8229 4.94792 14.9167 4.40625 14.8125C3.86458 14.7083 3.42708 14.4688 3.09375 14.0938L0.71875 11.0938ZM26.3438 34.1875V30.4688C26.3438 28.6354 26.9896 27.0104 28.2812 25.5938L48.9375 2.125C50.0833 0.854167 51.7083 0.208333 53.8125 0.1875H63.5938C64.4479 0.1875 65.1667 0.479167 65.75 1.0625C66.3333 1.64583 66.625 2.34375 66.625 3.15625V28.2812H70.0625C70.9167 28.2812 71.6354 28.5729 72.2188 29.1562C72.8021 29.7396 73.0938 30.4375 73.0938 31.25V34.1875C73.0938 35 72.7917 35.6979 72.1875 36.2812C71.5833 36.8438 70.875 37.125 70.0625 37.125H66.625V42.0625C66.625 42.875 66.3229 43.5729 65.7188 44.1562C65.1146 44.7188 64.4062 45 63.5938 45H57.7812C56.9688 45 56.2708 44.7292 55.6875 44.1875C55.125 43.625 54.8438 42.9375 54.8438 42.125V37.125H29.375C28.5625 37.125 27.8542 36.8438 27.25 36.2812C26.6458 35.6979 26.3438 35 26.3438 34.1875ZM38.9062 28.2812H54.8438V10.1875L38.9062 28.2812Z" fill="white"/>
<path d="M0.71875 11.0938C0.46875 10.7396 0.34375 10.3229 0.34375 9.84375C0.34375 9.36458 0.6875 8.83333 1.375 8.25L9 1.6875C10.1042 0.708333 11.6354 0.208333 13.5938 0.1875H18.1875C19.0417 0.1875 19.7604 0.479167 20.3438 1.0625C20.9271 1.64583 21.2188 2.34375 21.2188 3.15625V42.0625C21.2188 42.875 20.9167 43.5729 20.3125 44.1562C19.7083 44.7188 19 45 18.1875 45H12.375C11.5625 45 10.8646 44.7292 10.2812 44.1875C9.71875 43.625 9.4375 42.9375 9.4375 42.125V11.9062L5.84375 14.5312C5.42708 14.8229 4.94792 14.9167 4.40625 14.8125C3.86458 14.7083 3.42708 14.4688 3.09375 14.0938L0.71875 11.0938ZM26.3438 34.1875V30.4688C26.3438 28.6354 26.9896 27.0104 28.2812 25.5938L48.9375 2.125C50.0833 0.854167 51.7083 0.208333 53.8125 0.1875H63.5938C64.4479 0.1875 65.1667 0.479167 65.75 1.0625C66.3333 1.64583 66.625 2.34375 66.625 3.15625V28.2812H70.0625C70.9167 28.2812 71.6354 28.5729 72.2188 29.1562C72.8021 29.7396 73.0938 30.4375 73.0938 31.25V34.1875C73.0938 35 72.7917 35.6979 72.1875 36.2812C71.5833 36.8438 70.875 37.125 70.0625 37.125H66.625V42.0625C66.625 42.875 66.3229 43.5729 65.7188 44.1562C65.1146 44.7188 64.4062 45 63.5938 45H57.7812C56.9688 45 56.2708 44.7292 55.6875 44.1875C55.125 43.625 54.8438 42.9375 54.8438 42.125V37.125H29.375C28.5625 37.125 27.8542 36.8438 27.25 36.2812C26.6458 35.6979 26.3438 35 26.3438 34.1875ZM38.9062 28.2812H54.8438V10.1875L38.9062 28.2812Z" fill="url(#paint0_linear_199:3756)"/>
<path d="M0.71875 11.0938C0.46875 10.7396 0.34375 10.3229 0.34375 9.84375C0.34375 9.36458 0.6875 8.83333 1.375 8.25L9 1.6875C10.1042 0.708333 11.6354 0.208333 13.5938 0.1875H18.1875C19.0417 0.1875 19.7604 0.479167 20.3438 1.0625C20.9271 1.64583 21.2188 2.34375 21.2188 3.15625V42.0625C21.2188 42.875 20.9167 43.5729 20.3125 44.1562C19.7083 44.7188 19 45 18.1875 45H12.375C11.5625 45 10.8646 44.7292 10.2812 44.1875C9.71875 43.625 9.4375 42.9375 9.4375 42.125V11.9062L5.84375 14.5312C5.42708 14.8229 4.94792 14.9167 4.40625 14.8125C3.86458 14.7083 3.42708 14.4688 3.09375 14.0938L0.71875 11.0938ZM26.3438 34.1875V30.4688C26.3438 28.6354 26.9896 27.0104 28.2812 25.5938L48.9375 2.125C50.0833 0.854167 51.7083 0.208333 53.8125 0.1875H63.5938C64.4479 0.1875 65.1667 0.479167 65.75 1.0625C66.3333 1.64583 66.625 2.34375 66.625 3.15625V28.2812H70.0625C70.9167 28.2812 71.6354 28.5729 72.2188 29.1562C72.8021 29.7396 73.0938 30.4375 73.0938 31.25V34.1875C73.0938 35 72.7917 35.6979 72.1875 36.2812C71.5833 36.8438 70.875 37.125 70.0625 37.125H66.625V42.0625C66.625 42.875 66.3229 43.5729 65.7188 44.1562C65.1146 44.7188 64.4062 45 63.5938 45H57.7812C56.9688 45 56.2708 44.7292 55.6875 44.1875C55.125 43.625 54.8438 42.9375 54.8438 42.125V37.125H29.375C28.5625 37.125 27.8542 36.8438 27.25 36.2812C26.6458 35.6979 26.3438 35 26.3438 34.1875ZM38.9062 28.2812H54.8438V10.1875L38.9062 28.2812Z" fill="url(#paint1_radial_199:3756)"/>
</g>
<defs>
<filter id="filter0_ddd_199:3756" x="0.34375" y="0.1875" width="72.75" height="47.8125" filterUnits="userSpaceOnUse" color-interpolation-filters="sRGB">
<feFlood flood-opacity="0" result="BackgroundImageFix"/>
<feColorMatrix in="SourceAlpha" type="matrix" values="0 0 0 0 0 0 0 0 0 0 0 0 0 0 0 0 0 0 127 0" result="hardAlpha"/>
<feOffset dy="3"/>
<feColorMatrix type="matrix" values="0 0 0 0 0.360784 0 0 0 0 0.376471 0 0 0 0 0.462745 0 0 0 1 0"/>
<feBlend mode="normal" in2="BackgroundImageFix" result="effect1_dropShadow_199:3756"/>
<feColorMatrix in="SourceAlpha" type="matrix" values="0 0 0 0 0 0 0 0 0 0 0 0 0 0 0 0 0 0 127 0" result="hardAlpha"/>
<feOffset dy="2"/>
<feColorMatrix type="matrix" values="0 0 0 0 0.445312 0 0 0 0 0.463341 0 0 0 0 0.5625 0 0 0 1 0"/>
<feBlend mode="normal" in2="effect1_dropShadow_199:3756" result="effect2_dropShadow_199:3756"/>
<feColorMatrix in="SourceAlpha" type="matrix" values="0 0 0 0 0 0 0 0 0 0 0 0 0 0 0 0 0 0 127 0" result="hardAlpha"/>
<feOffset dy="1"/>
<feColorMatrix type="matrix" values="0 0 0 0 0.538889 0 0 0 0 0.558547 0 0 0 0 0.666667 0 0 0 1 0"/>
<feBlend mode="normal" in2="effect2_dropShadow_199:3756" result="effect3_dropShadow_199:3756"/>
<feBlend mode="normal" in="SourceGraphic" in2="effect3_dropShadow_199:3756" result="shape"/>
</filter>
<linearGradient id="paint0_linear_199:3756" x1="37" y1="-1.58065" x2="37" y2="55.0323" gradientUnits="userSpaceOnUse">
<stop stop-color="white"/>
<stop offset="1" stop-color="#694685"/>
</linearGradient>
<radialGradient id="paint1_radial_199:3756" cx="0" cy="0" r="1" gradientUnits="userSpaceOnUse" gradientTransform="translate(37 -6.80645) rotate(90) scale(28.7419 43.6071)">
<stop stop-color="white"/>
<stop offset="1" stop-color="white" stop-opacity="0"/>
</radialGradient>
</defs>
</svg>
