<svg width="37" height="47" viewBox="0 0 37 47" fill="none" xmlns="http://www.w3.org/2000/svg">
<path d="M3.32893 41.1101C-0.0590684 41.0759 0.0125455 41.0307 0.000486759 41.193C-0.0164118 41.4191 0.411631 41.2477 0.514006 41.6133L0.514499 41.6169C0.524835 41.9419 0.499323 46.0674 0.497682 46.3238C0.494073 46.3498 0.465115 46.508 0.292766 46.6022C0.242891 46.6295 0.217789 46.6871 0.231899 46.7422C0.245926 46.7972 0.295556 46.8358 0.352404 46.8358H0.378408C0.900623 46.8358 1.60733 46.8509 2.00805 46.9232C2.29123 46.9743 2.56825 47.0002 2.83149 47.0002C2.83165 47.0002 2.83157 47.0002 2.83165 47.0002C4.87851 47.0002 5.95764 45.4356 5.96544 43.8901C5.97216 42.5641 5.14996 41.1286 3.32893 41.1101ZM1.54695 41.5828C5.15537 41.3511 5.21493 44.0795 4.67179 45.4148C4.38755 46.1136 3.39169 46.5313 2.59286 46.5313C2.0987 46.5312 1.73792 46.3749 1.57542 46.0908L1.54695 41.5828Z" fill="white"/>
<path d="M8.11865 44.0073C8.11865 45.9541 9.71196 46.9727 11.2857 46.9727C12.8119 46.9727 14.434 45.8843 14.434 43.8673C14.434 40.0251 8.11865 39.9269 8.11865 44.0073ZM9.24946 43.9952C9.24946 42.5677 9.66069 41.4194 11.1013 41.4194C12.2314 41.4194 13.2606 42.5813 13.2606 43.8596C13.2849 45.0088 13.0297 46.4048 11.6766 46.5352C10.2767 46.5332 9.46012 45.6769 9.24987 43.9975L9.24946 43.9952Z" fill="white"/>
<path d="M21.2715 41.0342C21.1468 41.0739 20.9956 41.1006 20.8954 41.1006C20.7921 41.1006 17.0681 41.0952 16.8444 41.0949C16.6901 41.0141 16.45 40.9157 16.4127 41.0856L16.2583 41.7878C16.2454 41.8464 16.2761 41.9058 16.3313 41.9292C16.3864 41.9524 16.4505 41.9331 16.4836 41.8831C16.5507 41.7814 16.6517 41.7045 16.7922 41.6481C17.1526 41.6336 18.1203 41.632 18.333 41.6317L18.3108 46.3587C18.3105 46.3657 18.301 46.5294 18.1486 46.6221C18.0416 46.6873 18.0878 46.8528 18.2132 46.8528L19.5399 46.8468C19.6704 46.8463 19.7118 46.669 19.5945 46.611C19.4858 46.5571 19.4282 46.4758 19.4189 46.3701C19.4137 46.1503 19.3809 42.4039 19.3742 41.6327L20.7301 41.6649C20.7422 41.6654 21.0284 41.6817 21.1298 41.9668C21.1497 42.023 21.207 42.0571 21.2659 42.048C21.3966 42.0279 21.3724 41.9343 21.3902 41.3478C21.4185 41.2837 21.4417 41.1947 21.432 41.1335C21.4202 41.0581 21.3443 41.0114 21.2715 41.0342Z" fill="white"/>
<path d="M28.8326 45.1022C28.4992 45.097 27.8038 45.0963 27.6559 45.0962C27.6512 45.0844 25.9895 40.974 25.9895 40.974C25.9444 40.8676 25.7998 40.8771 25.7597 40.9757L23.5878 46.3173C23.5869 46.3192 23.4904 46.5122 23.255 46.625C23.1359 46.6821 23.1773 46.8613 23.3086 46.8615C23.3153 46.8615 24.2932 46.8631 24.2932 46.8631C24.4332 46.8631 24.4652 46.6672 24.3344 46.6213C24.2654 46.5867 24.2337 46.538 24.2533 46.4634C24.323 46.2237 24.5089 45.7034 24.5539 45.5781L26.721 45.5838L27.1469 46.5931C27.1487 46.5973 27.1532 46.6162 27.1391 46.6372C27.0667 46.7162 27.1219 46.8441 27.2291 46.8456C27.2378 46.8458 28.4652 46.8631 28.4652 46.8631C28.5384 46.8631 28.5912 46.8051 28.5912 46.7387C28.5912 46.6842 28.556 46.6378 28.507 46.621C28.3441 46.5424 28.2758 46.4678 27.8571 45.58C28.227 45.5878 28.2968 45.4211 28.8466 45.3499C28.9113 45.3416 28.9585 45.2846 28.9548 45.2196C28.9512 45.1545 28.8978 45.1033 28.8326 45.1022ZM25.6687 42.6709L26.5413 45.0885L24.7227 45.1095L25.6687 42.6709Z" fill="white"/>
<path d="M36.5682 45.5538C36.4486 45.8155 36.301 46.0723 35.9319 46.0872C35.7396 46.0948 34.7158 46.1353 34.0727 46.1306C37.9292 43.1891 36.9023 40.9746 34.6046 40.9746C34.1008 40.9746 33.5946 41.0959 33.2156 41.3075C33.179 41.3279 33.1552 41.3653 33.1522 41.407C33.1425 41.5402 33.1682 41.8094 33.2286 42.207C33.2372 42.2632 33.2829 42.3066 33.3396 42.3121C33.3957 42.3171 33.4494 42.2838 33.4687 42.2303C33.6903 41.6122 34.1358 41.3921 34.4787 41.3921C34.9694 41.3921 35.4825 41.8132 35.5135 42.6181C35.5826 44.4094 33.4005 46.0999 32.9113 46.5655C32.8284 46.637 32.7634 46.7124 32.8321 46.7992C32.8321 46.9555 33.0299 46.9754 33.074 46.8478C33.4938 46.8454 35.7721 46.8323 36.1938 46.8369C36.4994 46.859 36.6506 46.6813 36.6573 46.4826L36.804 45.6265C36.8284 45.4835 36.6282 45.4224 36.5682 45.5538Z" fill="white"/>
<path d="M34.6199 7.53915C34.4922 1.49709 34.4842 2.80312 34.6087 0.919999C34.6161 0.808354 34.5317 0.711884 34.4202 0.704255C25.4232 0.0888521 25.0822 0.0178945 24.3851 0.0178945C12.1114 0.0169101 18.555 -0.183658 2.17229 0.78276C2.06097 0.789405 1.9759 0.884562 1.98173 0.995797C3.03756 21.2529 2.99901 17.9483 2.45965 31.4492C2.45579 31.5461 2.52117 31.6322 2.61567 31.6545C3.8418 31.9444 3.6245 31.8303 6.4847 31.8323C6.48938 31.8337 11.8448 31.2489 11.8496 31.2484C11.8749 31.2526 19.2552 32.4639 19.2809 32.4639C19.2865 32.4639 19.2921 32.4636 19.2978 32.4632C27.9473 31.7383 25.468 31.9135 31.0483 31.6042L34.3249 32.2669C34.4523 32.2925 34.5692 32.194 34.5678 32.066C34.4969 25.4691 34.6199 7.53915 34.6199 7.53915ZM21.3194 7.05828C21.3437 7.05238 21.3786 7.04384 21.4221 7.03228L23.7542 6.5067C24.9489 6.20737 25.1254 6.13444 26.1477 5.65381H26.1478C26.6198 5.81755 27.9139 6.53369 28.2419 6.94483C28.4588 7.21701 28.4445 7.27755 28.3763 7.56901C28.3632 7.62496 28.3482 7.68935 28.3324 7.7654C28.3314 7.7704 28.3305 7.77557 28.3298 7.78066L27.8169 11.794C27.3095 11.8127 27.2672 11.7738 27.1268 11.6446C27.0689 11.5911 26.9968 11.5247 26.8696 11.4394C26.098 10.9215 23.5725 9.05289 22.7751 8.40968L21.2075 7.15016L21.2201 7.13794C21.2371 7.12104 21.2522 7.09831 21.2622 7.07658C21.2701 7.07042 21.3011 7.06279 21.3194 7.05828ZM24.9537 27.2652C24.9078 27.2193 5.35595 6.49193 5.34159 6.4633L7.04974 5.15293L30.9202 20.9589C30.7229 21.5242 30.6442 22.1729 30.5255 22.7116C30.1062 24.6142 29.5669 25.4466 28.7236 27.2543C27.5166 27.3023 25.0368 27.293 24.9537 27.2652ZM7.16787 21.6574C7.38763 21.1292 7.68975 20.2795 7.94372 19.8491C9.19225 20.6293 14.0695 25.5298 14.4937 26.1915C14.2588 26.2787 13.2496 26.4286 11.573 27.0984C10.5107 27.5222 9.50758 27.9242 8.5387 27.5955C8.44207 27.5629 8.18449 27.3443 7.80255 27.0146C7.10495 26.4124 6.47322 25.9785 6.10588 25.7617C5.47932 25.3918 5.57694 25.4699 7.16787 21.6574Z" fill="#EA473B"/>
<path d="M4.47656 21.7004C4.32349 13.8045 4.49445 18.1056 3.58717 0.699219L2.17229 0.782645C2.06097 0.78929 1.9759 0.884447 1.98173 0.995682L2.73503 15.4486C2.88465 23.1689 2.92559 19.7857 2.45964 31.449C2.45579 31.546 2.52117 31.6321 2.61567 31.6544C3.30761 31.818 3.59521 31.8547 4.08199 31.8547C4.06673 31.8026 4.04991 32.3782 4.47656 21.7004Z" fill="#D82B27"/>
<path d="M15.5092 26.6372C15.5092 26.6372 16.3366 26.3524 15.6565 25.6059C12.8804 22.5096 11.1892 21.3879 9.58178 19.6244C8.91002 18.8972 7.94385 19.8486 7.94385 19.8486C14.226 25.4328 12.9675 24.6245 14.0748 25.6937C14.2218 25.8356 14.3378 25.9477 14.4938 26.191C14.4648 26.2017 14.3364 26.2341 14.1587 26.279C11.545 26.9385 11.1529 27.3863 9.98587 27.6364C11.075 28.5244 12.9955 27.441 14.3647 26.9695C14.6921 26.8569 15.1258 26.7374 15.5092 26.6372Z" fill="#D82B27"/>
<path d="M32.1087 19.3149C32.1086 19.3148 9.2878 4.76138 9.2878 4.76138C8.52326 4.27387 7.69876 4.50848 7.0498 5.15292L30.9203 20.9589C30.723 21.5242 30.6442 22.1729 30.5256 22.7116C30.1063 24.6142 29.567 25.4466 28.7237 27.2543C28.7237 27.2543 30.8856 27.6699 31.5447 26.2068C33.0912 22.9154 32.7342 22.2945 33.1026 21.2553C33.0589 20.6691 33.1404 19.973 32.1087 19.3149Z" fill="#D82B27"/>
<path d="M28.3327 7.76517C28.3316 7.77017 28.3308 7.77534 28.3301 7.78043L27.8172 11.7938C27.8172 11.7938 29.8464 13.047 30.1013 10.9864C30.1014 10.9857 30.1015 10.9851 30.1016 10.9844L30.5213 7.59167C30.5221 7.5865 30.5229 7.58125 30.524 7.57609C30.54 7.49832 30.5554 7.43253 30.5688 7.37535C30.6385 7.07741 30.6531 7.01548 30.4314 6.73723C30.1984 6.44519 29.1545 5.67442 28.3768 5.1746C27.6427 4.68241 26.7708 5.27427 26.7708 5.27427C26.5532 5.44104 26.3587 5.58673 26.1479 5.65359C26.6811 5.94193 28.0319 6.68112 28.2421 6.9446C28.459 7.21679 28.4447 7.27733 28.3765 7.56878C28.3634 7.62481 28.3484 7.68921 28.3327 7.76517Z" fill="#D82B27"/>
</svg>
