<svg width="377" height="133" viewBox="0 0 377 133" fill="none" xmlns="http://www.w3.org/2000/svg">
<path d="M71.1132 33L74 35.8868L76.8868 33L74 30.1132L71.1132 33ZM305.887 33L303 30.1132L300.113 33L303 35.8868L305.887 33ZM74 33.5H75.0044V32.5H74V33.5ZM77.0132 33.5H79.0219V32.5H77.0132V33.5ZM81.0307 33.5H83.0395V32.5H81.0307V33.5ZM85.0482 33.5H87.057V32.5H85.0482V33.5ZM89.0658 33.5H91.0746V32.5H89.0658V33.5ZM93.0833 33.5H95.0921V32.5H93.0833V33.5ZM97.1009 33.5H99.1096V32.5H97.1009V33.5ZM101.118 33.5H103.127V32.5H101.118V33.5ZM105.136 33.5H107.145V32.5H105.136V33.5ZM109.154 33.5H111.162V32.5H109.154V33.5ZM113.171 33.5H115.18V32.5H113.171V33.5ZM117.189 33.5H119.197V32.5H117.189V33.5ZM121.206 33.5H123.215V32.5H121.206V33.5ZM125.224 33.5H127.232V32.5H125.224V33.5ZM129.241 33.5H131.25V32.5H129.241V33.5ZM133.259 33.5H135.268V32.5H133.259V33.5ZM137.276 33.5H139.285V32.5H137.276V33.5ZM141.294 33.5H143.303V32.5H141.294V33.5ZM145.311 33.5H147.32V32.5H145.311V33.5ZM149.329 33.5H151.338V32.5H149.329V33.5ZM153.347 33.5H155.355V32.5H153.347V33.5ZM157.364 33.5H159.373V32.5H157.364V33.5ZM161.382 33.5H163.39V32.5H161.382V33.5ZM165.399 33.5H167.408V32.5H165.399V33.5ZM169.417 33.5H171.425V32.5H169.417V33.5ZM173.434 33.5H175.443V32.5H173.434V33.5ZM177.452 33.5H179.461V32.5H177.452V33.5ZM181.469 33.5H183.478V32.5H181.469V33.5ZM185.487 33.5H187.496V32.5H185.487V33.5ZM189.504 33.5H191.513V32.5H189.504V33.5ZM193.522 33.5H195.531V32.5H193.522V33.5ZM197.54 33.5H199.548V32.5H197.54V33.5ZM201.557 33.5H203.566V32.5H201.557V33.5ZM205.575 33.5H207.583V32.5H205.575V33.5ZM209.592 33.5H211.601V32.5H209.592V33.5ZM213.61 33.5H215.618V32.5H213.61V33.5ZM217.627 33.5H219.636V32.5H217.627V33.5ZM221.645 33.5H223.654V32.5H221.645V33.5ZM225.662 33.5H227.671V32.5H225.662V33.5ZM229.68 33.5H231.689V32.5H229.68V33.5ZM233.697 33.5H235.706V32.5H233.697V33.5ZM237.715 33.5H239.724V32.5H237.715V33.5ZM241.733 33.5H243.741V32.5H241.733V33.5ZM245.75 33.5H247.759V32.5H245.75V33.5ZM249.768 33.5H251.776V32.5H249.768V33.5ZM253.785 33.5H255.794V32.5H253.785V33.5ZM257.803 33.5H259.812V32.5H257.803V33.5ZM261.82 33.5H263.829V32.5H261.82V33.5ZM265.838 33.5H267.847V32.5H265.838V33.5ZM269.855 33.5H271.864V32.5H269.855V33.5ZM273.873 33.5H275.882V32.5H273.873V33.5ZM277.89 33.5H279.899V32.5H277.89V33.5ZM281.908 33.5H283.917V32.5H281.908V33.5ZM285.926 33.5H287.934V32.5H285.926V33.5ZM289.943 33.5H291.952V32.5H289.943V33.5ZM293.961 33.5H295.969V32.5H293.961V33.5ZM297.978 33.5H299.987V32.5H297.978V33.5ZM301.996 33.5H303V32.5H301.996V33.5Z" fill="url(#paint0_linear_645:1153)" fill-opacity="0.15"/>
<path d="M57 1H30C25.5817 1 22 4.58172 22 9V80M318 1H347C351.418 1 355 4.58172 355 9V80M62.5 106.466H312" stroke="url(#paint1_linear_645:1153)" stroke-dasharray="3 3"/>
<g clip-path="url(#clip0_645:1153)">
<path d="M52.4863 110.882L52.9444 103.33C53.0175 102.381 52.8634 101.429 52.4949 100.552C52.1264 99.6743 51.5542 98.8976 50.8256 98.2856L39.473 88.7668C38.748 88.1577 37.8887 87.7296 36.9659 87.5175C36.0431 87.3054 35.0831 87.3155 34.1649 87.547L26.7185 89.2964C25.4709 89.6231 24.3627 90.3452 23.5597 91.3544C22.7568 92.3637 22.3023 93.6058 22.2643 94.8949L20.4948 117.462C20.475 118.138 20.6089 118.809 20.8864 119.426C21.1639 120.042 21.5777 120.587 22.0967 121.02V121.02C22.6244 121.461 23.2461 121.774 23.914 121.937C24.582 122.1 25.2783 122.107 25.9495 121.958L47.6509 116.37C48.9506 116.119 50.1304 115.445 51.0054 114.452C51.8805 113.459 52.4013 112.203 52.4863 110.882ZM49.9624 103.124L49.5027 110.694C49.4999 110.735 49.4796 110.769 49.4758 110.81L43.8717 106.112L47.0384 99.012L48.9045 100.577C49.2713 100.886 49.5586 101.279 49.7427 101.722C49.9267 102.165 50.002 102.646 49.9624 103.124V103.124ZM26.786 115.427L33.4115 101.243L39.5976 106.43L26.786 115.427ZM35.3623 98.9768L41.8008 94.6205L44.6556 97.0141L41.4889 104.114L35.3623 98.9768ZM34.883 90.453C35.3439 90.335 35.8263 90.3283 36.2904 90.4335C36.7545 90.5387 37.1869 90.7527 37.5519 91.0579L39.418 92.6226L32.9795 96.9789L27.3342 92.2454C27.3713 92.2336 27.4019 92.2066 27.4404 92.1979L34.883 90.453ZM25.2499 95.0337C25.2651 94.8475 25.2987 94.6633 25.3501 94.4837L31.0425 99.2566L23.6856 114.997L25.2499 95.0337ZM27.7371 118.414L41.9701 108.419L47.6819 113.208C47.4647 113.317 47.2356 113.401 46.9991 113.457L27.7371 118.414Z" fill="url(#paint2_linear_645:1153)"/>
</g>
<g clip-path="url(#clip1_645:1153)">
<path d="M16.4801 67.7834L13.2671 66.4174C12.8659 66.2391 12.428 66.159 11.9896 66.1836C11.5512 66.2083 11.1251 66.3371 10.7464 66.5594L4.85372 70.0248C4.4769 70.246 4.15797 70.5534 3.92319 70.9219C3.68841 71.2904 3.54449 71.7093 3.50326 72.1443L3.11345 75.6523C3.06279 76.2452 3.20552 76.8386 3.52028 77.3437C3.83504 77.8487 4.3049 78.2383 4.85953 78.454L14.3985 82.71C14.6892 82.8229 15.0017 82.8684 15.3125 82.843C15.6234 82.8175 15.9244 82.7218 16.1928 82.5631V82.5631C16.4659 82.4017 16.6983 82.1799 16.8723 81.9146C17.0462 81.6493 17.1569 81.3476 17.1959 81.0328L18.1191 70.7337C18.2109 70.1299 18.0998 69.5127 17.8032 68.9788C17.5066 68.4449 17.0412 68.0245 16.4801 67.7834ZM12.7168 67.6822L15.9375 69.0517C15.9547 69.0592 15.9661 69.0732 15.9837 69.0813L13.0748 70.792L10.4772 68.3183L11.4458 67.7486C11.637 67.637 11.8522 67.5727 12.0733 67.5611C12.2944 67.5496 12.515 67.5911 12.7168 67.6822V67.6822ZM14.4856 79.6601L9.34186 74.5879L12.5528 72.6995L14.4856 79.6601ZM8.65793 73.3896L7.75857 69.9171L9.24037 69.0456L11.838 71.5194L8.65793 73.3896ZM4.87776 72.2811C4.89766 72.0624 4.96928 71.8516 5.0867 71.6661C5.20413 71.4806 5.364 71.3257 5.55311 71.2141L6.52175 70.6444L7.42111 74.1169L4.49081 75.8402C4.49144 75.8222 4.48438 75.8048 4.48655 75.7867L4.87776 72.2811ZM5.38115 77.1773C5.30255 77.1419 5.22764 77.0988 5.15749 77.0487L8.11218 75.3111L13.8196 80.9417L5.38115 77.1773ZM15.931 79.708L13.7843 71.9753L16.7491 70.2317C16.763 70.343 16.7639 70.4555 16.7518 70.567L15.931 79.708Z" fill="url(#paint3_linear_645:1153)"/>
</g>
<g clip-path="url(#clip2_645:1153)">
<path d="M325.178 110.882L324.72 103.33C324.647 102.381 324.801 101.429 325.169 100.552C325.538 99.6743 326.11 98.8976 326.838 98.2856L338.191 88.7668C338.916 88.1577 339.775 87.7296 340.698 87.5175C341.621 87.3054 342.581 87.3155 343.499 87.547L350.946 89.2964C352.193 89.6231 353.301 90.3452 354.104 91.3544C354.907 92.3637 355.362 93.6058 355.4 94.8949L357.169 117.462C357.189 118.138 357.055 118.809 356.778 119.426C356.5 120.042 356.086 120.587 355.567 121.02V121.02C355.04 121.461 354.418 121.774 353.75 121.937C353.082 122.1 352.386 122.107 351.715 121.958L330.013 116.37C328.713 116.119 327.534 115.445 326.659 114.452C325.784 113.459 325.263 112.203 325.178 110.882ZM327.702 103.124L328.161 110.694C328.164 110.735 328.185 110.769 328.188 110.81L333.792 106.112L330.626 99.012L328.76 100.577C328.393 100.886 328.105 101.279 327.921 101.722C327.737 102.165 327.662 102.646 327.702 103.124V103.124ZM350.878 115.427L344.253 101.243L338.066 106.43L350.878 115.427ZM342.302 98.9768L335.863 94.6205L333.008 97.0141L336.175 104.114L342.302 98.9768ZM342.781 90.453C342.32 90.335 341.838 90.3283 341.374 90.4335C340.91 90.5387 340.477 90.7527 340.112 91.0579L338.246 92.6226L344.685 96.9789L350.33 92.2454C350.293 92.2336 350.262 92.2066 350.224 92.1979L342.781 90.453ZM352.414 95.0337C352.399 94.8475 352.365 94.6633 352.314 94.4837L346.622 99.2566L353.978 114.997L352.414 95.0337ZM349.927 118.414L335.694 108.419L329.982 113.208C330.199 113.317 330.428 113.401 330.665 113.457L349.927 118.414Z" fill="url(#paint4_linear_645:1153)"/>
</g>
<g clip-path="url(#clip3_645:1153)">
<path d="M361.185 67.7834L364.398 66.4174C364.799 66.2391 365.237 66.159 365.675 66.1836C366.114 66.2083 366.54 66.3371 366.919 66.5594L372.811 70.0248C373.188 70.246 373.507 70.5534 373.742 70.9219C373.977 71.2904 374.121 71.7093 374.162 72.1443L374.552 75.6523C374.602 76.2452 374.46 76.8386 374.145 77.3437C373.83 77.8487 373.36 78.2383 372.806 78.454L363.267 82.71C362.976 82.8229 362.663 82.8684 362.352 82.843C362.042 82.8175 361.741 82.7218 361.472 82.5631V82.5631C361.199 82.4017 360.967 82.1799 360.793 81.9146C360.619 81.6493 360.508 81.3476 360.469 81.0328L359.546 70.7337C359.454 70.1299 359.565 69.5127 359.862 68.9788C360.158 68.4449 360.624 68.0245 361.185 67.7834ZM364.948 67.6822L361.728 69.0517C361.71 69.0592 361.699 69.0732 361.681 69.0813L364.59 70.792L367.188 68.3183L366.219 67.7486C366.028 67.637 365.813 67.5727 365.592 67.5611C365.371 67.5496 365.15 67.5911 364.948 67.6822V67.6822ZM363.179 79.6601L368.323 74.5879L365.112 72.6995L363.179 79.6601ZM369.007 73.3896L369.906 69.9171L368.425 69.0456L365.827 71.5194L369.007 73.3896ZM372.787 72.2811C372.767 72.0624 372.696 71.8516 372.578 71.6661C372.461 71.4806 372.301 71.3257 372.112 71.2141L371.143 70.6444L370.244 74.1169L373.174 75.8402C373.174 75.8222 373.181 75.8048 373.178 75.7867L372.787 72.2811ZM372.284 77.1773C372.362 77.1419 372.437 77.0988 372.508 77.0487L369.553 75.3111L363.845 80.9417L372.284 77.1773ZM361.734 79.708L363.881 71.9753L360.916 70.2317C360.902 70.343 360.901 70.4555 360.913 70.567L361.734 79.708Z" fill="url(#paint5_linear_645:1153)"/>
</g>
<defs>
<linearGradient id="paint0_linear_645:1153" x1="465.091" y1="33.4566" x2="464.575" y2="52.6595" gradientUnits="userSpaceOnUse">
<stop offset="0.0550459" stop-color="#FF4AF7"/>
<stop offset="1" stop-color="#00CCFF"/>
</linearGradient>
<linearGradient id="paint1_linear_645:1153" x1="590.705" y1="49.1597" x2="-232.145" y2="471.065" gradientUnits="userSpaceOnUse">
<stop offset="0.0550459" stop-color="#FF4AF7"/>
<stop offset="1" stop-color="#00CCFF"/>
</linearGradient>
<linearGradient id="paint2_linear_645:1153" x1="67.8234" y1="133.919" x2="-27.1401" y2="77.4078" gradientUnits="userSpaceOnUse">
<stop offset="0.0550459" stop-color="#FF4AF7"/>
<stop offset="1" stop-color="#00CCFF"/>
</linearGradient>
<linearGradient id="paint3_linear_645:1153" x1="28.8657" y1="64.6739" x2="-10.3767" y2="97.2332" gradientUnits="userSpaceOnUse">
<stop offset="0.0550459" stop-color="#FF4AF7"/>
<stop offset="1" stop-color="#00CCFF"/>
</linearGradient>
<linearGradient id="paint4_linear_645:1153" x1="309.841" y1="133.919" x2="404.804" y2="77.4078" gradientUnits="userSpaceOnUse">
<stop offset="0.0550459" stop-color="#FF4AF7"/>
<stop offset="1" stop-color="#00CCFF"/>
</linearGradient>
<linearGradient id="paint5_linear_645:1153" x1="348.799" y1="64.6739" x2="388.042" y2="97.2332" gradientUnits="userSpaceOnUse">
<stop offset="0.0550459" stop-color="#FF4AF7"/>
<stop offset="1" stop-color="#00CCFF"/>
</linearGradient>
<clipPath id="clip0_645:1153">
<rect width="35.8793" height="35.8793" fill="white" transform="translate(31.4023 82) rotate(39.9787)"/>
</clipPath>
<clipPath id="clip1_645:1153">
<rect width="16.5559" height="16.5559" fill="white" transform="translate(0.665039 72.4883) rotate(-30.4596)"/>
</clipPath>
<clipPath id="clip2_645:1153">
<rect width="35.8793" height="35.8793" fill="white" transform="matrix(-0.766283 0.642503 0.642503 0.766283 346.262 82)"/>
</clipPath>
<clipPath id="clip3_645:1153">
<rect width="16.5559" height="16.5559" fill="white" transform="matrix(-0.861987 -0.506931 -0.506931 0.861987 377 72.4883)"/>
</clipPath>
</defs>
</svg>
